<svg width="21" height="21" viewBox="0 0 21 21" fill="none" xmlns="http://www.w3.org/2000/svg">
<g clip-path="url(#clip0_6029_15298)">
<path d="M16.0781 0H4.92188C2.2036 0 0 2.2036 0 4.92188V16.0781C0 18.7964 2.2036 21 4.92188 21H16.0781C18.7964 21 21 18.7964 21 16.0781V4.92188C21 2.2036 18.7964 0 16.0781 0Z" fill="url(#paint0_radial_6029_15298)"/>
<path d="M16.0781 0H4.92188C2.2036 0 0 2.2036 0 4.92188V16.0781C0 18.7964 2.2036 21 4.92188 21H16.0781C18.7964 21 21 18.7964 21 16.0781V4.92188C21 2.2036 18.7964 0 16.0781 0Z" fill="url(#paint1_radial_6029_15298)"/>
<path d="M10.5007 2.29688C8.27293 2.29688 7.99329 2.30664 7.11834 2.34642C6.24504 2.38645 5.64892 2.52468 5.12736 2.72754C4.58776 2.93705 4.13011 3.21735 3.67418 3.67344C3.21784 4.12945 2.93754 4.58711 2.72738 5.12646C2.52394 5.64818 2.38555 6.24455 2.34626 7.11744C2.30713 7.99247 2.29688 8.2722 2.29688 10.5001C2.29688 12.728 2.30672 13.0067 2.34642 13.8817C2.38662 14.755 2.52484 15.3511 2.72754 15.8726C2.93721 16.4122 3.21751 16.8699 3.67361 17.3258C4.12945 17.7822 4.58711 18.0631 5.1263 18.2726C5.64826 18.4755 6.24446 18.6137 7.11761 18.6537C7.99263 18.6935 8.27203 18.7033 10.4998 18.7033C12.7278 18.7033 13.0065 18.6935 13.8815 18.6537C14.7548 18.6137 15.3516 18.4755 15.8735 18.2726C16.4129 18.0631 16.8699 17.7822 17.3257 17.3258C17.782 16.8699 18.0622 16.4122 18.2725 15.8729C18.4741 15.3511 18.6126 14.7548 18.6536 13.8818C18.6929 13.0069 18.7031 12.728 18.7031 10.5001C18.7031 8.2722 18.6929 7.99263 18.6536 7.11761C18.6126 6.2443 18.4741 5.64826 18.2725 5.12671C18.0622 4.58711 17.782 4.12945 17.3257 3.67344C16.8694 3.21718 16.4131 2.93688 15.873 2.72762C15.3501 2.52468 14.7536 2.38637 13.8803 2.34642C13.0053 2.30664 12.7267 2.29688 10.4982 2.29688H10.5007ZM9.76484 3.77516C9.98329 3.77483 10.227 3.77516 10.5007 3.77516C12.6911 3.77516 12.9506 3.78304 13.8155 3.82233C14.6153 3.85891 15.0495 3.99254 15.3386 4.10484C15.7215 4.25348 15.9944 4.43125 16.2813 4.71844C16.5684 5.00555 16.7461 5.27896 16.8952 5.6618C17.0075 5.95055 17.1413 6.38466 17.1777 7.18446C17.217 8.04923 17.2255 8.30895 17.2255 10.4982C17.2255 12.6874 17.217 12.9472 17.1777 13.8119C17.1411 14.6117 17.0075 15.0458 16.8952 15.3347C16.7465 15.7175 16.5684 15.9901 16.2813 16.2771C15.9942 16.5642 15.7216 16.7418 15.3386 16.8906C15.0498 17.0034 14.6153 17.1367 13.8155 17.1732C12.9508 17.2125 12.6911 17.2211 10.5007 17.2211C8.31034 17.2211 8.05071 17.2125 7.18602 17.1732C6.38621 17.1363 5.95211 17.0027 5.6627 16.8904C5.27994 16.7417 5.00645 16.564 4.71934 16.2769C4.43223 15.9898 4.25455 15.717 4.1055 15.334C3.9932 15.0452 3.85941 14.6111 3.82298 13.8113C3.78369 12.9465 3.77582 12.6868 3.77582 10.4961C3.77582 8.30558 3.78369 8.04718 3.82298 7.18241C3.85957 6.38261 3.9932 5.9485 4.1055 5.65934C4.25422 5.2765 4.43223 5.00309 4.71942 4.71598C5.00653 4.42887 5.27994 4.25111 5.66278 4.10214C5.95194 3.98934 6.38621 3.85604 7.18602 3.81929C7.94276 3.78509 8.23602 3.77483 9.76484 3.77311V3.77516ZM14.8796 5.13721C14.3361 5.13721 13.8952 5.57772 13.8952 6.12125C13.8952 6.66471 14.3361 7.10563 14.8796 7.10563C15.423 7.10563 15.8639 6.66471 15.8639 6.12125C15.8639 5.5778 15.423 5.13688 14.8796 5.13688V5.13721ZM10.5007 6.28737C8.17433 6.28737 6.28811 8.17359 6.28811 10.5001C6.28811 12.8266 8.17433 14.7119 10.5007 14.7119C12.8272 14.7119 14.7128 12.8266 14.7128 10.5001C14.7128 8.17368 12.8271 6.28737 10.5006 6.28737H10.5007ZM10.5007 7.76565C12.0109 7.76565 13.2352 8.98981 13.2352 10.5001C13.2352 12.0102 12.0109 13.2345 10.5007 13.2345C8.99054 13.2345 7.76639 12.0102 7.76639 10.5001C7.76639 8.98981 8.99054 7.76565 10.5007 7.76565Z" fill="white"/>
</g>
<defs>
<radialGradient id="paint0_radial_6029_15298" cx="0" cy="0" r="1" gradientUnits="userSpaceOnUse" gradientTransform="translate(5.57812 22.6174) rotate(-90) scale(20.8126 19.3573)">
<stop stop-color="#FFDD55"/>
<stop offset="0.1" stop-color="#FFDD55"/>
<stop offset="0.5" stop-color="#FF543E"/>
<stop offset="1" stop-color="#C837AB"/>
</radialGradient>
<radialGradient id="paint1_radial_6029_15298" cx="0" cy="0" r="1" gradientUnits="userSpaceOnUse" gradientTransform="translate(-3.51758 1.51274) rotate(78.681) scale(9.30333 38.3486)">
<stop stop-color="#3771C8"/>
<stop offset="0.128" stop-color="#3771C8"/>
<stop offset="1" stop-color="#6600FF" stop-opacity="0"/>
</radialGradient>
<clipPath id="clip0_6029_15298">
<rect width="21" height="21" fill="white"/>
</clipPath>
</defs>
</svg>
